<?xml version="1.0" standalone="no"?>
<!DOCTYPE svg PUBLIC "-//W3C//DTD SVG 20010904//EN"
 "http://www.w3.org/TR/2001/REC-SVG-20010904/DTD/svg10.dtd">
<svg version="1.0" xmlns="http://www.w3.org/2000/svg"
 width="700.000000pt" height="700.000000pt" viewBox="0 0 700.000000 700.000000"
 preserveAspectRatio="xMidYMid meet">
<metadata>
Created by potrace 1.14, written by Peter Selinger 2001-2017
</metadata>
<g transform="translate(0.000000,700.000000) scale(0.100000,-0.100000)"
fill="#000000" stroke="none">
<path d="M810 5103 c-21 -11 -42 -32 -52 -53 -16 -34 -510 -3149 -510 -3216 0
-43 27 -91 62 -109 26 -13 361 -15 2972 -15 2334 0 2948 3 2968 13 48 24 66
67 84 204 9 70 108 790 220 1598 145 1052 200 1478 194 1500 -4 16 -22 43 -38
60 l-30 30 -2918 3 c-2762 2 -2919 1 -2952 -15z m5691 -212 c16 -16 29 -39 29
-51 0 -12 -88 -659 -195 -1437 -107 -779 -195 -1419 -195 -1423 0 -5 -12 -22
-26 -39 l-26 -31 -2777 0 c-2530 0 -2779 1 -2799 16 -13 9 -27 27 -32 40 -7
17 52 416 215 1455 124 787 230 1439 235 1449 6 11 20 26 32 34 20 14 303 16
2766 16 l2744 0 29 -29z"/>
<path d="M2077 4268 c-16 -13 -37 -143 -212 -1303 -24 -165 -46 -310 -49 -323
-6 -41 17 -52 109 -52 63 0 88 4 99 16 9 8 16 17 16 19 0 2 54 360 120 795 66
434 120 803 120 819 0 17 -6 31 -16 35 -29 11 -170 6 -187 -6z"/>
<path d="M4608 4262 c-68 -25 -132 -74 -162 -125 -33 -56 -51 -129 -84 -347
l-27 -175 -95 -3 c-52 -2 -98 -6 -103 -11 -10 -10 -38 -171 -31 -182 3 -5 48
-9 100 -9 76 0 94 -3 94 -15 0 -8 -27 -191 -60 -407 -33 -215 -60 -393 -60
-395 0 -7 220 -2 220 5 1 4 29 187 63 407 l62 400 130 5 129 5 13 60 c7 33 12
77 13 98 l0 37 -125 0 c-93 0 -125 3 -125 13 0 6 13 92 29 190 39 240 50 254
181 243 57 -5 80 -3 88 6 16 20 55 156 49 172 -17 42 -210 61 -299 28z"/>
<path d="M5113 4075 c-62 -27 -86 -110 -46 -164 67 -90 203 -48 203 62 0 51
-21 84 -66 103 -41 17 -50 17 -91 -1z"/>
<path d="M2718 3614 c-177 -42 -344 -198 -399 -373 -16 -49 -21 -92 -21 -166
0 -161 46 -272 156 -372 107 -98 217 -137 386 -136 176 1 304 55 416 176 147
159 185 401 93 595 -41 85 -149 196 -231 235 -115 55 -275 72 -400 41z m268
-221 c33 -11 67 -34 105 -72 72 -72 93 -131 87 -240 -10 -173 -129 -283 -323
-298 -140 -11 -260 49 -312 155 -24 50 -28 68 -27 142 0 54 7 98 17 120 41 91
116 162 207 193 60 21 183 21 246 0z"/>
<path d="M5042 3603 c-33 -7 -50 -40 -62 -122 -6 -41 -35 -238 -65 -438 -30
-201 -55 -380 -55 -399 0 -44 20 -54 108 -54 114 0 102 -32 176 465 79 528 79
525 46 542 -24 12 -99 15 -148 6z"/>
<path d="M3580 3137 c-27 -13 -43 -52 -54 -128 -12 -79 -13 -79 270 -79 143 0
253 4 264 10 20 11 40 85 40 150 0 29 -5 42 -19 50 -30 15 -469 13 -501 -3z"/>
</g>
</svg>
