<?xml version="1.0" encoding="UTF-8"?>
<svg xmlns="http://www.w3.org/2000/svg" version="1.1" viewBox="0 0 720 347.17">
  <defs>
    <style>
      .cls-1 {
        fill: #2b2121;
        fill-rule: evenodd;
      }
    </style>
  </defs>
  <!-- Generator: Adobe Illustrator 28.6.0, SVG Export Plug-In . SVG Version: 1.2.0 Build 709)  -->
  <g>
    <g id="Layer_1">
      <g>
        <path class="cls-1" d="M325.62,153.59c6.51-.02,12.13,1.65,17.45,4.68.95.54,1.86,1.23,2.59,2.02,1.65,1.8,1.76,4.77.4,6.61-1.27,1.71-3.73,2.31-6,1.44-.47-.18-.94-.4-1.36-.68-10.42-6.97-21.3-4.82-29.51,3.79-8.95,9.4-14.98,20.56-17.29,33.47-1.21,6.77,1.85,10.27,8.66,10.27s11.99-3.86,16.72-8.22c5.95-5.49,10.16-12.26,13.65-19.51.96-1.99,1.83-4.03,2.9-5.95,1.3-2.33,4.05-3.24,6.36-2.29,2.31.94,3.65,3.53,2.85,6.11-1.01,3.25-2.47,6.33-4.12,9.3-2.1,3.79-4.27,7.53-6.84,11.04-2.04,2.78-2.07,4.43-.42,6.46,2.09,2.56,5.3,3.55,7.93,2.23,3.2-1.6,5.49-4.26,7.51-7.11,5.94-8.4,9.67-17.9,13.39-27.4,1.65-4.2,2.98-8.5,3.99-12.89.44-1.9.84-3.81.76-5.79-.22-5,1.95-7.08,6.94-6.46,5.23.64,10.48.88,15.75.91,5.75.03,11.35-.52,16.72-2.73,2.31-.95,4.53-.78,6.25,1.28,1.6,1.9,1.65,4.08-.16,6.56-5.8,7.97-11.5,16-16.26,24.65-3.15,5.73-6.22,11.51-8.16,17.8-.68,2.21-1.11,4.44-1.02,6.76.17,4.29,3.11,6.27,7.13,4.67,3.53-1.41,5.92-4.26,8.17-7.11,3.59-4.55,6.38-9.64,8.71-14.93,3.85-8.74,8.46-17.03,13.97-24.83,3.7-5.25,7.95-9.97,13.52-13.29,5.2-3.1,10.66-4.63,16.79-3,9.13,2.43,12.7,13.13,7.94,21.5-1.37,2.4-4.01,3.17-6.39,2.16-2.21-.94-3.31-3.32-2.73-5.94.04-.17.08-.33.13-.49.78-2.29,1.66-4.63-.61-6.58-2.31-1.99-4.83-1.11-7.22-.16-3.8,1.5-6.91,4.07-9.42,7.21-7.24,9.07-13.45,18.77-17.17,29.89-.03.08-.05.16-.08.24-3.3,10.12,1.08,15.06,11.43,15.9,5.26.43,10.09-1.37,14.55-3.97,13.55-7.88,23.12-19.16,28.95-33.75,2.52-6.3,5.65-12.35,8.57-18.49,1.01-2.12,2.78-3.21,5.16-2.96,2.17.22,3.55,1.54,4.23,3.55.56,1.65-.02,3.2-.69,4.68-2.03,4.49-4.11,8.96-6.15,13.44-2.57,5.64-5.22,11.25-7.64,16.95-1.7,4-2.78,8.21-2.55,12.64.15,3.01.86,5.83,3.86,7.24,3.17,1.49,6,.27,8.5-1.72,2.99-2.38,4.48-5.6,5.2-9.34,2.97-15.52,9.91-29.03,21.1-40.2,10.93-10.91,25.85-12.82,39.35-5.33,1.19.66,2.37,1.35,3.3,2.36,1.65,1.81,2.2,3.81.92,6.06-1.2,2.1-3.43,2.94-5.95,2.12-1.12-.36-2.16-.97-3.2-1.55-9.61-5.38-19.1-4.05-27.04,3.62-8.09,7.81-13.12,17.45-16.92,27.83-1.11,3.04-1.63,6.23-1.51,9.51.17,4.57,2.48,6.97,7.08,7.35,6.95.58,12.25-2.8,17.12-7.12,7.4-6.55,12.38-14.81,16.45-23.68.39-.85.76-1.71,1.22-2.52,1.53-2.7,4.14-3.67,6.66-2.53,2.35,1.06,3.43,3.63,2.47,6.48-1.49,4.45-3.76,8.55-6.06,12.61-1.55,2.73-3.42,5.27-5.13,7.9-.64,1-1.37,1.96-1.85,3.04-1.45,3.21.01,5.6,3.52,5.82,5.22.33,9.07-2.28,12.47-5.84.29-.3.52-.67.79-1,2.49-3.09,5.43-3.79,7.9-1.87,2.49,1.94,2.67,5,.13,8.13-5.55,6.86-12.33,11.33-21.64,10.81-4.08-.23-7.72-1.35-10.51-4.41-1.75-1.92-3.35-2.08-5.54-.67-6.68,4.29-13.92,6.16-21.87,4.54-2.79-.57-5.43-1.51-7.64-3.32-1.83-1.5-3.46-1.39-5.27-.01-2.92,2.22-6.32,3.25-9.91,3.71-7.56.96-14.23-3.31-17.04-10.87-1.43-3.86-2.14-3.98-5.25-1.4-5.8,4.8-12.06,8.81-19.36,11-5.49,1.65-11.02,1.93-16.61.7-5.11-1.12-9.57-3.37-13.04-7.43-1.86-2.17-2.57-2.14-4.53-.13-2.14,2.2-4.34,4.35-7.02,5.85-5.57,3.12-11.34,3.54-17.02.43-5.29-2.9-6.89-7.81-6.91-13.54-.01-3.88.71-7.59,1.92-11.24,3.3-9.92,8.62-18.8,14.14-27.59.82-1.31,2.53-2.58,1.56-4.28-.94-1.66-2.92-1.01-4.47-1.08-3.31-.15-6.63.05-9.93-.16-2.1-.13-3.19.73-3.63,2.69-2.92,12.76-7.97,24.72-13.89,36.32-2.78,5.46-6.08,10.6-10.54,14.91-7.97,7.7-17.59,7.88-25.71.39-2.86-2.64-2.97-2.7-6.24-.37-6.74,4.8-14.11,6.83-22.37,5.58-10.17-1.54-15.18-9.22-14.27-19.25,1.36-14.92,8.47-27.41,17.68-38.83,3.83-4.75,8.54-8.49,14.18-10.95,3.94-1.72,7.95-2.51,12.13-2.4"/>
        <path class="cls-1" d="M252.03,150.53c-14.54-.08-26.67-1.2-38.3-5.55-2.1-.79-3.59-.27-4.75,1.63-7.32,12-13.7,24.47-18,37.88-1.97,6.16-3.15,12.49-1.85,19.07,1.74,8.79,8.33,14.62,17.31,15.26,8.24.59,15.56-2.06,22.51-6.08,11.72-6.77,21.08-16.22,29.8-26.38,6.87-8.01,12.86-16.66,18.16-25.8,2.3-3.96,4.94-5.18,7.76-3.75s3.41,4.2,1.61,8.48c-9.62,22.83-20.57,44.96-35.17,65.08-9.69,13.36-20.72,25.34-35.39,33.54-19.46,10.87-41.8,8.64-58.53-6.07-.88-.78-1.73-1.66-2.37-2.64-1.37-2.12-1.16-4.79.34-6.39,1.47-1.58,4.17-1.91,6.38-.74.59.32,1.16.73,1.64,1.19,14.09,13.36,32.12,14.83,49.22,4.63,11.22-6.69,19.92-16.02,27.83-26.19,3.08-3.96,6.03-8.01,8.61-12.31.61-1,2.01-2.31.85-3.33-.99-.87-2.12.58-3.01,1.26-6.53,4.95-13.47,9.22-21.15,12.13-7.22,2.74-14.64,4.2-22.46,3.08-13.07-1.87-22.2-10.95-24.17-23.97-1.57-10.38.93-20.07,4.58-29.6,4.38-11.45,9.77-22.41,16.18-32.87,2-3.27,1.93-3.62-.6-6.4-7.12-7.82-8.69-17.05-6.69-27.09,1.05-5.3,3.2-10.2,6.38-14.6.55-.75,1.17-1.46,1.84-2.11,2.43-2.34,5.11-2.56,7.27-.66,2.01,1.77,2.26,4.6.37,7.12-2.76,3.65-4.82,7.61-5.79,12.08-1.18,5.39-1.08,10.65,2.05,15.47,2.11,3.26,3.62,3.41,5.99.33,5.45-7.08,11.39-13.72,17.88-19.85,13.6-12.82,29-22.63,47.09-27.94,6.38-1.87,12.88-2.34,19.42-1.74,13.88,1.27,22.58,13.13,20.34,27.64-2.49,16.11-11.94,27.45-25.3,35.85-12.23,7.69-25.79,10.61-37.9,10.32M249.03,140.28c10.07.41,20-1.52,29.42-5.79,11.04-5.01,19.68-12.55,24.61-23.89.88-2.04,1.58-4.12,1.94-6.31,2.16-13.15-6.58-18.83-17.09-17.84-7.95.75-15.36,3.43-22.58,6.75-14.93,6.87-27.08,17.35-38.16,29.22-2.94,3.16-5.58,6.61-8.22,10.03-1.43,1.85-1,3.03,1.17,3.93.93.39,1.93.66,2.91.91,8.43,2.17,17,3.19,26,2.98"/>
        <path class="cls-1" d="M494.22,134.84c2.98,0,4.84,1.84,4.83,4.77-.02,3.87-2.66,7.24-5.71,7.27-2.68.03-4.96-2.35-4.92-5.15.06-3.68,2.76-6.9,5.8-6.89"/>
      </g>
    </g>
  </g>
</svg>