<?xml version="1.0" encoding="UTF-8"?>
<svg xmlns="http://www.w3.org/2000/svg" version="1.1" viewBox="0 0 432 432">
  <defs>
    <style>
      .cls-1 {
        fill: #231f20;
      }
    </style>
  </defs>
  <!-- Generator: Adobe Illustrator 28.6.0, SVG Export Plug-In . SVG Version: 1.2.0 Build 709)  -->
  <g>
    <g id="Layer_1">
      <g>
        <path class="cls-1" d="M409.08,116.08H53.55c-3.85,0-7.13,2.77-7.72,6.54l-30.63,195.06c-.73,4.68,2.93,8.9,7.72,8.9h359.29c3.91,0,7.22-2.85,7.74-6.68l26.87-195.06c.64-4.63-3.01-8.76-7.74-8.76ZM140.85,171.32c-2.22,14.67-12.56,82.74-14.79,97.41-.14,1.79-.99,3.07-2.89,3.31-3.1.53-8.94.53-10.49-.49-.79-.51-.74-1.43-.64-2.3,3.33-22.18,8.65-56.96,12.14-80.04,1.36-8.83,2.35-15.73,2.89-18.86.23-1.28.97-2.01,2.34-2.28l.19-.04c2.77-.51,8.12-.51,10.18.24,1.45.54,1.24,1.78,1.06,3.07ZM199.84,264.15c-6.62,6.44-14.92,9.65-24.9,9.65s-17.78-2.95-24.03-8.86c-6.25-5.91-9.38-13.49-9.38-22.73s3.4-17.54,10.2-24.27c6.8-6.72,15.01-10.09,24.62-10.09s17.52,3.06,23.88,9.18c6.35,6.12,9.53,13.75,9.53,22.89,0,9.72-3.31,17.8-9.93,24.23ZM252.65,245.41c-.55,3.4-.8,5.95-4.58,5.73-6.51,0-20.83.14-27.75-.05-2.51-.03-3.18-1.76-2.81-4.18.29-2.3.79-5.89,2.01-7.66l.13-.16c1.26-1.62,3.9-1.25,8.38-1.31,6.95.03,17.07-.05,21.73.04,4.72-.25,3.43,4.43,2.9,7.59ZM283.65,209.27c2.69,0,8.21,0,11.11,0,1.82,0,2.48.06,2.4,1.29-.42,2.91-1.13,7.83-1.87,10.28-.89,1.47-2.49.68-5.6.89-3.06,0-6.73,0-8.51,0-1.2.09-1.64-.15-1.92.65-.89,4.73-6.68,44.58-7.85,49.73-2,.74-5.29.13-8.8.32-2.42-.01-3.95.04-4.37-.17-.21-.09-.26-.25-.25-.49.62-4.32,6.5-42.54,7.46-48.89.12-.85.18-1.08-1.14-1.13-.68-.03-1.73-.02-3.01-.02-2.01-.01-4.22.02-6.21-.02-2.49.18-1.8-1.83-1.52-3.83.3-1.95.66-4.34.97-6.22.17-1.25.54-2.31,1.9-2.33,2.04-.14,7.52,0,9.55-.09,1.21-.07,1.53-.33,1.72-1.25,1.1-5.43,2.53-19.73,4.51-26.64,3.78-12.98,19.12-16.59,30.44-11.41l.14.14c.4.49.39,1.04.26,1.7-.48,1.91-1.77,5.81-2.51,8.18-.6,2.28-2.29,2.46-4.46,1.89-3.35-.73-6.2-1.21-8.62.59-2.05,1.66-2.76,4.4-3.12,6.88-.48,3.07-1.66,10.73-2.4,15.47-.23,1.58-.46,2.78-.49,3.46-.05.93.47.99,2.17,1ZM313.87,267.64c-.33,3.73-2.32,4.47-5.63,4.67-2.32.11-4.89.2-7.09-.55-2.34-.86-1.33-3.37-.76-7.93,2.08-13.95,4.43-29.66,6.44-43.12.86-3.55.37-10.23,3.56-10.87l.19-.06c2.49-.56,11.1-1.51,11.42,1.97-1.04,10.85-6.53,43.99-8.14,55.89ZM311.32,186.82v-.26c.48-9.35,14.2-8.96,14.12.42-.56,9.12-13.72,8.86-14.12-.16Z"/>
        <path class="cls-1" d="M176.76,221.25c-6.15,0-11.32,2.04-15.52,6.11-4.2,4.07-6.3,8.92-6.3,14.54s1.76,10.11,5.28,13.47c3.52,3.36,8.22,5.04,14.1,5.04,6.57,0,11.88-1.84,15.96-5.52,4.07-3.68,6.11-8.51,6.11-14.5,0-5.46-1.84-10.02-5.52-13.67-3.68-3.65-8.38-5.48-14.1-5.48Z"/>
      </g>
    </g>
  </g>
</svg>